<svg width="63" height="84" viewBox="0 0 63 84" fill="none" xmlns="http://www.w3.org/2000/svg">
<path id="Vector" d="M56.5939 46.4054L58.5933 47.9062L56.5939 46.4054L31.5 79.8356L6.40611 46.4054C3.60831 42.6782 2.5 37.2771 2.5 31.6641C2.5 15.5449 15.496 2.5 31.5 2.5C47.504 2.5 60.5001 15.5449 60.5 31.6641C60.5 34.1068 60.1658 36.9739 59.4853 39.6788C58.7974 42.413 57.802 44.796 56.5939 46.4054ZM47.2559 31.664C47.2559 22.9375 40.213 15.8391 31.5 15.8391C22.7871 15.8391 15.7441 22.9375 15.7441 31.6641C15.7441 40.3906 22.7871 47.489 31.5 47.489C40.213 47.489 47.2559 40.3906 47.2559 31.664Z" stroke="white" stroke-width="5"/>
</svg>
