<svg width="84" height="81" viewBox="0 0 84 81" fill="none" xmlns="http://www.w3.org/2000/svg">
<path id="Vector" d="M36.3613 18.9028L23.1677 4.25995C21.6467 2.57255 18.8582 2.58005 17.0915 4.28245L6.24179 14.7331C3.01261 17.8416 2.08831 22.4576 3.9564 26.1586C15.1167 48.3759 33.7524 66.3191 56.844 77.0806C60.6894 78.8767 65.4864 77.988 68.7156 74.8795L79.6667 64.3314C81.4412 62.6252 81.4451 59.9291 79.6745 58.4667L64.3866 45.8487C62.7876 44.5288 60.3033 44.7013 58.7004 46.2462L53.3808 51.3684C53.1085 51.6428 52.75 51.8237 52.3604 51.8833C51.9708 51.9429 51.5716 51.878 51.2241 51.6984C42.5289 46.884 35.3161 39.9399 30.3203 31.5733C30.1332 31.2386 30.0654 30.8542 30.1274 30.479C30.1894 30.1037 30.3777 29.7584 30.6635 29.4959L35.9674 24.3925C37.5742 22.8401 37.7497 20.4402 36.3613 18.8991V18.9028Z" stroke="white" stroke-width="6" stroke-linecap="round" stroke-linejoin="round"/>
</svg>
